<?xml version="1.0" encoding="UTF-8" standalone="no"?>
<!-- Created with Inkscape (http://www.inkscape.org/) -->

<svg
   xmlns:dc="http://purl.org/dc/elements/1.1/"
   xmlns:cc="http://creativecommons.org/ns#"
   xmlns:rdf="http://www.w3.org/1999/02/22-rdf-syntax-ns#"
   xmlns:svg="http://www.w3.org/2000/svg"
   xmlns="http://www.w3.org/2000/svg"
   xmlns:sodipodi="http://sodipodi.sourceforge.net/DTD/sodipodi-0.dtd"
   xmlns:inkscape="http://www.inkscape.org/namespaces/inkscape"
   width="128"
   height="128"
   id="svg2"
   version="1.1"
   inkscape:version="0.48.4 r9939"
   sodipodi:docname="logo.svg"
   inkscape:export-filename="/home/juergen/Entwicklung/git/de.steinpfeffer.rdt/de.steinpfeffer.rdt/res/drawable-mdpi/ic_launcher.png"
   inkscape:export-xdpi="33.75"
   inkscape:export-ydpi="33.75">
  <defs
     id="defs4">
    <filter
       id="filter3206"
       inkscape:label="Darken edges"
       inkscape:menu="Shadows and Glows"
       inkscape:menu-tooltip="Darken the edges with an inner blur"
       color-interpolation-filters="sRGB">
      <feGaussianBlur
         id="feGaussianBlur3208"
         result="result6"
         stdDeviation="1.5" />
      <feComposite
         id="feComposite3210"
         in2="result6"
         operator="atop"
         in="SourceGraphic"
         result="result8" />
      <feComposite
         id="feComposite3212"
         in2="SourceAlpha"
         in="result8"
         operator="atop"
         result="result9" />
    </filter>
  </defs>
  <sodipodi:namedview
     id="base"
     pagecolor="#ffffff"
     bordercolor="#666666"
     borderopacity="1.0"
     inkscape:pageopacity="0.0"
     inkscape:pageshadow="2"
     inkscape:zoom="2.8"
     inkscape:cx="18.796768"
     inkscape:cy="54.093192"
     inkscape:document-units="px"
     inkscape:current-layer="layer2"
     showgrid="false"
     inkscape:window-width="1382"
     inkscape:window-height="738"
     inkscape:window-x="2023"
     inkscape:window-y="88"
     inkscape:window-maximized="0"
     showguides="true"
     inkscape:guide-bbox="true" />
  <metadata
     id="metadata7">
    <rdf:RDF>
      <cc:Work
         rdf:about="">
        <dc:format>image/svg+xml</dc:format>
        <dc:type
           rdf:resource="http://purl.org/dc/dcmitype/StillImage" />
        <dc:title></dc:title>
      </cc:Work>
    </rdf:RDF>
  </metadata>
  <g
     inkscape:groupmode="layer"
     id="layer2"
     inkscape:label="fono"
     style="display:inline">
    <rect
       style="fill:#33bd02;fill-opacity:1;stroke:none;filter:url(#filter3206)"
       id="rect3014"
       width="128"
       height="128"
       x="7.1054274e-15"
       y="0"
       rx="15"
       ry="15" />
    <path
       style="fill:none;stroke:none"
       d="m 0,0 128,0 0,128 -128,0 z"
       id="rect3214" />
    <rect
       style="fill:none;stroke:none"
       id="rect3985"
       width="128"
       height="57.142857"
       x="-106.071"
       y="18.714144"
       rx="35.84"
       ry="15" />
    <path
       style="fill:none;stroke:none"
       d="M 20.756756,0 107.24324,0 C 118.74249,0 128,8.750716 128,19.62044 l 0,88.75912 C 128,119.24928 118.74249,128 107.24324,128 l -86.486484,0 C 9.2575131,128 0,119.24928 0,108.37956 L 0,19.62044 C 0,8.750716 9.2575131,0 20.756756,0 z"
       id="rect3987" />
  </g>
  <g
     inkscape:label="teksto"
     inkscape:groupmode="layer"
     id="layer1"
     transform="translate(0,-924.36215)"
     style="display:inline">
    <g
       style="font-size:40px;font-style:normal;font-variant:normal;font-weight:normal;font-stretch:normal;text-align:center;line-height:100%;letter-spacing:0px;word-spacing:0px;writing-mode:lr-tb;text-anchor:middle;fill:#ffffff;fill-opacity:1;stroke:none;font-family:DejaVu Sans;-inkscape-font-specification:DejaVu Sans"
       id="text2985"
       transform="translate(0,1.884055)">
      <path
         d="m 33.726536,955.81165 c 0.846335,0.28647 1.666647,0.89845 2.460937,1.83593 0.807271,0.93751 1.614562,2.22658 2.421875,3.86719 l 4.003907,7.96875 -4.238282,0 -3.730468,-7.48047 c -0.96356,-1.95311 -1.901059,-3.24869 -2.8125,-3.88672 -0.898453,-0.63801 -2.12892,-0.95702 -3.691407,-0.95703 l -4.296875,0 0,12.32422 -3.945312,0 0,-29.16016 8.90625,0 c 3.333317,3e-5 5.820294,0.69665 7.460937,2.08985 1.640603,1.39325 2.460915,3.49612 2.460938,6.30859 -2.3e-5,1.83596 -0.42971,3.35939 -1.289063,4.57031 -0.846374,1.21096 -2.083352,2.0508 -3.710937,2.51954 m -9.882813,-12.2461 0,10.35156 4.960938,0 c 1.901027,2e-5 3.333317,-0.43618 4.296875,-1.30859 0.976544,-0.8854 1.464825,-2.18097 1.464844,-3.88672 -1.9e-5,-1.7057 -0.4883,-2.98826 -1.464844,-3.84765 -0.963558,-0.87237 -2.395848,-1.30857 -4.296875,-1.3086 l -4.960938,0"
         style="fill:#ffffff;fill-opacity:1"
         id="path3862"
         inkscape:connector-curvature="0" />
    </g>
    <g
       style="font-size:40px;font-style:normal;font-variant:normal;font-weight:normal;font-stretch:normal;text-align:center;line-height:100%;letter-spacing:0px;word-spacing:0px;writing-mode:lr-tb;text-anchor:middle;fill:#ffffff;fill-opacity:1;stroke:none;font-family:DejaVu Sans;-inkscape-font-specification:DejaVu Sans"
       id="text2989"
       transform="translate(0,1.884055)">
      <path
         d="m 102.84763,950.36243 0,-11.83594 3.59375,0 0,30.39062 -3.59375,0 0,-3.28125 c -0.75523,1.30209 -1.71226,2.27214 -2.871098,2.91016 -1.145847,0.625 -2.526054,0.9375 -4.140625,0.9375 -2.643238,0 -4.798183,-1.05469 -6.464844,-3.16406 -1.653649,-2.10937 -2.480471,-4.88281 -2.480469,-8.32031 -2e-6,-3.43749 0.82682,-6.21092 2.480469,-8.32032 1.666661,-2.10935 3.821606,-3.16404 6.464844,-3.16406 1.614571,2e-5 2.994778,0.31903 4.140625,0.95703 1.158838,0.62502 2.115868,1.58856 2.871098,2.89063 m -12.246098,7.63672 c -6e-6,2.64323 0.540358,4.72005 1.621094,6.23046 1.093741,1.4974 2.591135,2.2461 4.492187,2.2461 1.901028,0 3.398427,-0.7487 4.492187,-2.2461 1.09373,-1.51041 1.64061,-3.58723 1.64063,-6.23046 -2e-5,-2.64322 -0.5469,-4.71353 -1.64063,-6.21094 -1.09376,-1.5104 -2.591159,-2.26561 -4.492187,-2.26563 -1.901052,2e-5 -3.398446,0.75523 -4.492187,2.26563 -1.080736,1.49741 -1.6211,3.56772 -1.621094,6.21094"
         id="path3859"
         inkscape:connector-curvature="0" />
    </g>
    <g
       style="font-size:40px;font-style:normal;font-variant:normal;font-weight:normal;font-stretch:normal;text-align:center;line-height:100%;letter-spacing:0px;word-spacing:0px;writing-mode:lr-tb;text-anchor:middle;fill:#ffffff;fill-opacity:1;stroke:none;font-family:DejaVu Sans;-inkscape-font-specification:DejaVu Sans"
       id="text2993"
       transform="translate(0,1.884055)">
      <path
         d="m 26.148029,982.11188 0,6.21093 7.402344,0 0,2.79297 -7.402344,0 0,11.87502 c -7e-6,1.7838 0.240878,2.9297 0.722657,3.4375 0.494783,0.5078 1.490875,0.7617 2.988281,0.7617 l 3.691406,0 0,3.0078 -3.691406,0 c -2.773446,0 -4.687507,-0.5143 -5.742188,-1.543 -1.054691,-1.0416 -1.582035,-2.9296 -1.582031,-5.664 l 0,-11.87502 -2.636719,0 0,-2.79297 2.636719,0 0,-6.21093 3.613281,0"
         id="path3856"
         inkscape:connector-curvature="0" />
    </g>
    <g
       style="font-size:40px;font-style:normal;font-variant:normal;font-weight:normal;font-stretch:normal;text-align:center;line-height:100%;letter-spacing:0px;word-spacing:0px;writing-mode:lr-tb;text-anchor:middle;fill:#293c42;fill-opacity:1;stroke:none;font-family:DejaVu Sans;-inkscape-font-specification:DejaVu Sans"
       id="text2997"
       transform="translate(0,-2.115945)">
      <path
         d="m 51.287922,958.19446 25.039062,0 0,3.28125 -25.039062,0 0,-3.28125 m 0,7.96875 25.039062,0 0,3.32031 -25.039062,0 0,-3.32031 m 5.703125,-9.21875 5.078125,-13.06641 3.515625,0 5.058594,13.06641 -3.105469,0 -3.710938,-9.23828 -3.59375,9.23828 -3.242187,0"
         id="path3853"
         inkscape:connector-curvature="0" />
    </g>
    <g
       style="font-size:40px;font-style:normal;font-variant:normal;font-weight:normal;font-stretch:normal;text-align:center;line-height:100%;letter-spacing:0px;word-spacing:0px;writing-mode:lr-tb;text-anchor:middle;fill:#293c42;fill-opacity:1;stroke:none;font-family:DejaVu Sans;-inkscape-font-specification:DejaVu Sans"
       id="text3001"
       transform="translate(0,1.884055)">
      <path
         d="m 51.288029,994.90875 25.039062,0 0,3.28125 -25.039062,0 0,-3.28125 m 0,7.96875 25.039062,0 0,3.3203 -25.039062,0 0,-3.3203 m 5.703125,-9.21875 5.078125,-13.0664 3.515625,0 5.058593,13.0664 -3.105468,0 -3.710938,-9.23828 -3.59375,9.23828 -3.242187,0"
         id="path3850"
         inkscape:connector-curvature="0" />
    </g>
    <g
       style="font-size:40px;font-style:normal;font-variant:normal;font-weight:normal;font-stretch:normal;text-align:center;line-height:100%;letter-spacing:0px;word-spacing:0px;writing-mode:lr-tb;text-anchor:middle;fill:#000000;fill-opacity:1;stroke:none;font-family:DejaVu Sans;-inkscape-font-specification:DejaVu Sans"
       id="text3005"
       transform="translate(0,1.884055)">
      <path
         d="m 107.69182,988.32281 -7.910158,10.64454 8.320308,11.23045 -4.23828,0 -6.367184,-8.5937 -6.367188,8.5937 -4.238281,0 8.496094,-11.4453 -7.773438,-10.42969 4.238281,0 5.800782,7.79297 5.800784,-7.79297 4.23828,0"
         id="path3847"
         inkscape:connector-curvature="0" />
    </g>
    <g
       style="font-size:40px;font-style:normal;font-variant:normal;font-weight:normal;font-stretch:normal;text-align:center;line-height:100%;letter-spacing:0px;word-spacing:0px;writing-mode:lr-tb;text-anchor:middle;fill:#000000;fill-opacity:1;stroke:none;font-family:DejaVu Sans;-inkscape-font-specification:DejaVu Sans"
       id="text3009"
       transform="translate(0,-6.115945)">
      <path
         d="m 18.320312,1033.3711 -2.373046,3.1934 2.496093,3.3691 -1.271484,0 -1.910156,-2.5781 -1.910156,2.5781 -1.271485,0 2.548828,-3.4336 -2.332031,-3.1289 1.271484,0 1.740235,2.3379 1.740234,-2.3379 1.271484,0"
         style="font-size:12px"
         id="path3820"
         inkscape:connector-curvature="0" />
      <path
         d="m 23.927734,1034.4844 7.511719,0 0,0.9844 -7.511719,0 0,-0.9844 m 0,2.3906 7.511719,0 0,0.9961 -7.511719,0 0,-0.9961"
         style="fill:#293c42;fill-opacity:1"
         id="path3822"
         inkscape:connector-curvature="0" />
      <path
         d="m 41.189453,1035.0645 c 0.472652,0 0.810542,-0.088 1.013672,-0.2637 0.207026,-0.1758 0.310541,-0.4649 0.310547,-0.8672 -6e-6,-0.3984 -0.103521,-0.6836 -0.310547,-0.8555 -0.20313,-0.1718 -0.54102,-0.2578 -1.013672,-0.2578 l -0.949219,0 0,2.2442 0.949219,0 m -0.949219,1.5585 0,3.3106 -2.255859,0 0,-8.7481 3.445312,0 c 1.152339,10e-5 1.996088,0.1934 2.53125,0.5801 0.539055,0.3868 0.808586,0.9981 0.808594,1.834 -8e-6,0.5781 -0.140632,1.0527 -0.421875,1.4238 -0.277351,0.3711 -0.697272,0.6446 -1.259765,0.8204 0.308587,0.07 0.583977,0.2304 0.826171,0.4804 0.246087,0.2461 0.494134,0.6211 0.744141,1.125 l 1.224609,2.4844 -2.402343,0 -1.066407,-2.1738 c -0.214849,-0.4375 -0.433598,-0.7364 -0.65625,-0.8965 -0.218754,-0.1602 -0.511723,-0.2402 -0.878906,-0.2403 l -0.638672,0"
         style="font-weight:bold;fill:#ffffff;fill-opacity:1;-inkscape-font-specification:DejaVu Sans Bold"
         id="path3824"
         inkscape:connector-curvature="0" />
      <path
         d="m 52.861328,1036.3828 0,0.5274 -4.957031,0 c 0.04687,0.7421 0.269529,1.3086 0.667969,1.6992 0.402341,0.3867 0.960934,0.5801 1.675781,0.5801 0.414058,0 0.814448,-0.051 1.201172,-0.1524 0.390619,-0.1016 0.777337,-0.2539 1.160156,-0.457 l 0,1.0195 c -0.386725,0.1641 -0.783209,0.2891 -1.189453,0.375 -0.406255,0.086 -0.818364,0.1289 -1.236328,0.1289 -1.046878,0 -1.876956,-0.3047 -2.490235,-0.914 -0.609376,-0.6094 -0.914063,-1.4336 -0.914062,-2.4727 -10e-7,-1.0742 0.289061,-1.9258 0.867187,-2.5547 0.58203,-0.6328 1.365232,-0.9492 2.34961,-0.9492 0.882807,0 1.580072,0.2852 2.091797,0.8555 0.515618,0.5664 0.77343,1.3379 0.773437,2.3144 m -1.078125,-0.3164 c -0.0078,-0.5898 -0.173833,-1.0605 -0.498047,-1.4121 -0.320317,-0.3516 -0.746098,-0.5273 -1.277344,-0.5273 -0.601565,0 -1.083987,0.1699 -1.447265,0.5097 -0.359377,0.3399 -0.566408,0.8184 -0.621094,1.4356 l 3.84375,-0.01"
         style="fill:#ffffff;fill-opacity:1"
         id="path3826"
         inkscape:connector-curvature="0" />
      <path
         d="m 58.949219,1036.5762 c -6e-6,-0.7813 -0.162115,-1.3867 -0.486328,-1.8164 -0.320318,-0.4297 -0.771489,-0.6446 -1.353516,-0.6446 -0.578128,0 -1.029299,0.2149 -1.353516,0.6446 -0.320314,0.4297 -0.48047,1.0351 -0.480468,1.8164 -2e-6,0.7773 0.160154,1.3808 0.480468,1.8105 0.324217,0.4297 0.775388,0.6446 1.353516,0.6446 0.582027,0 1.033198,-0.2149 1.353516,-0.6446 0.324213,-0.4297 0.486322,-1.0332 0.486328,-1.8105 m 1.078125,2.5429 c -7e-6,1.1172 -0.248053,1.9473 -0.744141,2.4903 -0.496099,0.5468 -1.255864,0.8203 -2.279297,0.8203 -0.378909,0 -0.736331,-0.029 -1.072265,-0.088 -0.33594,-0.055 -0.662112,-0.1406 -0.978516,-0.2578 l 0,-1.0488 c 0.316404,0.1718 0.628904,0.2988 0.9375,0.3808 0.308591,0.082 0.623044,0.1231 0.943359,0.1231 0.707028,0 1.236324,-0.1856 1.587891,-0.5567 0.351557,-0.3672 0.527338,-0.9238 0.527344,-1.6699 l 0,-0.5332 c -0.222662,0.3867 -0.507818,0.6758 -0.855469,0.8672 -0.34766,0.1914 -0.763676,0.2871 -1.248047,0.2871 -0.80469,0 -1.453127,-0.3066 -1.945312,-0.9199 -0.492189,-0.6133 -0.738282,-1.4258 -0.738282,-2.4375 0,-1.0156 0.246093,-1.8301 0.738282,-2.4434 0.492185,-0.6133 1.140622,-0.9199 1.945312,-0.9199 0.484371,0 0.900387,0.096 1.248047,0.2871 0.347651,0.1914 0.632807,0.4805 0.855469,0.8672 l 0,-0.9961 1.078125,0 0,5.748"
         style="fill:#ffffff;fill-opacity:1"
         id="path3828"
         inkscape:connector-curvature="0" />
      <path
         d="m 62.136719,1037.3438 0,-3.9727 1.078125,0 0,3.9316 c -2e-6,0.6211 0.121091,1.0879 0.363281,1.4004 0.242185,0.3086 0.605466,0.4629 1.089844,0.4629 0.582027,0 1.041011,-0.1855 1.376953,-0.5566 0.339838,-0.3711 0.50976,-0.877 0.509765,-1.5176 l 0,-3.7207 1.078125,0 0,6.5625 -1.078125,0 0,-1.0078 c -0.261723,0.3984 -0.566411,0.6953 -0.914062,0.8906 -0.343754,0.1914 -0.744144,0.2871 -1.201172,0.2871 -0.753909,0 -1.326174,-0.2344 -1.716797,-0.7031 -0.390626,-0.4688 -0.585938,-1.1543 -0.585937,-2.0566 m 2.71289,-4.1309 0,0"
         style="fill:#ffffff;fill-opacity:1"
         id="path3830"
         inkscape:connector-curvature="0" />
      <path
         d="m 69.865234,1030.8164 1.078125,0 0,9.1172 -1.078125,0 0,-9.1172"
         style="fill:#ffffff;fill-opacity:1"
         id="path3832"
         inkscape:connector-curvature="0" />
      <path
         d="m 75.736328,1034.127 c -0.578128,0 -1.035159,0.2265 -1.371094,0.6796 -0.335939,0.4493 -0.503908,1.0665 -0.503906,1.8516 -2e-6,0.7852 0.166014,1.4043 0.498047,1.8574 0.335935,0.4492 0.794919,0.6739 1.376953,0.6739 0.574215,0 1.029292,-0.2266 1.365234,-0.6797 0.335933,-0.4532 0.503901,-1.0703 0.503907,-1.8516 -6e-6,-0.7773 -0.167974,-1.3926 -0.503907,-1.8457 -0.335942,-0.457 -0.791019,-0.6855 -1.365234,-0.6855 m 0,-0.9141 c 0.937496,0 1.673823,0.3047 2.208984,0.9141 0.53515,0.6093 0.802728,1.4531 0.802735,2.5312 -7e-6,1.0742 -0.267585,1.918 -0.802735,2.5313 -0.535161,0.6093 -1.271488,0.914 -2.208984,0.914 -0.941409,0 -1.679689,-0.3047 -2.214844,-0.914 -0.531251,-0.6133 -0.796875,-1.4571 -0.796875,-2.5313 0,-1.0781 0.265624,-1.9219 0.796875,-2.5312 0.535155,-0.6094 1.273435,-0.9141 2.214844,-0.9141"
         style="fill:#ffffff;fill-opacity:1"
         id="path3834"
         inkscape:connector-curvature="0" />
      <path
         d="m 88.691406,1034.332 0,-3.5156 2.109375,0 0,9.1172 -2.109375,0 0,-0.9492 c -0.289067,0.3867 -0.607426,0.6699 -0.955078,0.8496 -0.34766,0.1797 -0.750004,0.2695 -1.207031,0.2695 -0.808596,0 -1.472658,-0.3203 -1.992188,-0.9609 -0.519532,-0.6446 -0.779297,-1.4727 -0.779297,-2.4844 0,-1.0117 0.259765,-1.8379 0.779297,-2.4785 0.51953,-0.6445 1.183592,-0.9668 1.992188,-0.9668 0.453121,0 0.853511,0.092 1.201172,0.2754 0.351557,0.1797 0.67187,0.4609 0.960937,0.8437 m -1.382812,4.2481 c 0.449214,0 0.79101,-0.1641 1.02539,-0.4922 0.238276,-0.3281 0.357417,-0.8047 0.357422,-1.4297 -5e-6,-0.625 -0.119146,-1.1016 -0.357422,-1.4297 -0.23438,-0.3281 -0.576176,-0.4922 -1.02539,-0.4922 -0.445316,0 -0.787113,0.1641 -1.025391,0.4922 -0.234378,0.3281 -0.351565,0.8047 -0.351562,1.4297 -3e-6,0.625 0.117184,1.1016 0.351562,1.4297 0.238278,0.3281 0.580075,0.4922 1.025391,0.4922"
         style="font-weight:bold;fill:#ffffff;fill-opacity:1;-inkscape-font-specification:DejaVu Sans Bold"
         id="path3836"
         inkscape:connector-curvature="0" />
      <path
         d="m 98.564453,1036.3828 0,0.5274 -4.957031,0 c 0.04687,0.7421 0.269529,1.3086 0.667969,1.6992 0.402341,0.3867 0.960934,0.5801 1.675781,0.5801 0.414058,0 0.814448,-0.051 1.201172,-0.1524 0.390619,-0.1016 0.777337,-0.2539 1.160156,-0.457 l 0,1.0195 c -0.386725,0.1641 -0.783209,0.2891 -1.189453,0.375 -0.406255,0.086 -0.818364,0.1289 -1.236328,0.1289 -1.046878,0 -1.876956,-0.3047 -2.490235,-0.914 -0.609376,-0.6094 -0.914063,-1.4336 -0.914062,-2.4727 -10e-7,-1.0742 0.289061,-1.9258 0.867187,-2.5547 0.58203,-0.6328 1.365232,-0.9492 2.34961,-0.9492 0.882807,0 1.580072,0.2852 2.091797,0.8555 0.515618,0.5664 0.77343,1.3379 0.773437,2.3144 m -1.078125,-0.3164 c -0.0078,-0.5898 -0.173833,-1.0605 -0.498047,-1.4121 -0.320317,-0.3516 -0.746098,-0.5273 -1.277344,-0.5273 -0.601565,0 -1.083987,0.1699 -1.447265,0.5097 -0.359377,0.3399 -0.566408,0.8184 -0.621094,1.4356 l 3.84375,-0.01"
         style="fill:#ffffff;fill-opacity:1"
         id="path3838"
         inkscape:connector-curvature="0" />
      <path
         d="m 106.32227,1031.5078 0,1.8633 2.16211,0 0,1.5 -2.16211,0 0,2.7832 c -1e-5,0.3047 0.0605,0.5117 0.18164,0.6211 0.12109,0.1055 0.36132,0.1582 0.7207,0.1582 l 1.07812,0 0,1.5 -1.79882,0 c -0.82813,0 -1.41602,-0.1719 -1.76368,-0.5156 -0.34375,-0.3477 -0.51562,-0.9356 -0.51562,-1.7637 l 0,-2.7832 -1.04297,0 0,-1.5 1.04297,0 0,-1.8633 2.09766,0"
         style="font-weight:bold;fill:#ffffff;fill-opacity:1;-inkscape-font-specification:DejaVu Sans Bold"
         id="path3840"
         inkscape:connector-curvature="0" />
      <path
         d="m 113.69922,1034.3789 c -0.1211,-0.07 -0.25391,-0.1211 -0.39844,-0.1523 -0.14063,-0.035 -0.29688,-0.053 -0.46875,-0.053 -0.60938,0 -1.07813,0.1993 -1.40625,0.5977 -0.32422,0.3945 -0.48633,0.9629 -0.48633,1.7051 l 0,3.457 -1.08398,0 0,-6.5625 1.08398,0 0,1.0195 c 0.22656,-0.3984 0.52148,-0.6933 0.88477,-0.8847 0.36328,-0.1953 0.80468,-0.293 1.32422,-0.293 0.0742,0 0.15624,0.01 0.24609,0.018 0.0898,0.01 0.18945,0.022 0.29883,0.041 l 0.006,1.1074"
         style="fill:#ffffff;fill-opacity:1"
         id="path3842"
         inkscape:connector-curvature="0" />
      <path
         d="m 114.8418,1033.3711 1.07812,0 0,6.5625 -1.07812,0 0,-6.5625 m 0,-2.5547 1.07812,0 0,1.3652 -1.07812,0 0,-1.3652"
         style="fill:#ffffff;fill-opacity:1"
         id="path3844"
         inkscape:connector-curvature="0" />
    </g>
  </g>
</svg>
